<svg xmlns="http://www.w3.org/2000/svg" shape-rendering="geometricPrecision" text-rendering="geometricPrecision" image-rendering="optimizeQuality" fill-rule="evenodd" clip-rule="evenodd" viewBox="0 0 512 490.72"><path fill-rule="nonzero" d="M50.09 306.91c.55-96.5 1.09-192.97 1.64-289.09.02-6.41 4.57-11.74 10.6-12.99v-.02c65.64-13.7 151.75.77 194.37 57.41C301.6 7.12 384.41-5.06 450.97 4.66c6.64.97 11.43 6.68 11.42 13.21h.01v290.22c0 7.39-5.98 13.37-13.37 13.37-1.06 0-2.1-.13-3.09-.36-3.64-.57-7.25-1.03-10.85-1.39-1.99-9.64-5.71-19.33-11.48-27.32 3.99.12 12 4.34 16.06 4.66V25.71c-58.96-5.58-136.09 10.13-170.09 64.32V150c-8.24-2.32-18.19-2.78-26.74-1.44V89.63C210.98 33.51 131.58 17.1 72.8 25.08V297.9c14.12-.51 32.12-4.27 45.9-3.13l-.49 1.03c-3.59 7.92-5.18 16.47-5.28 25.13-16.02-1.14-32.25-.91-48.43.48-8.24.68-13.97-5.91-14.41-14.5zm182.36 52.78c0 4.3-3.5 7.79-7.8 7.79-4.31 0-7.8-3.49-7.8-7.79v-14.42c-.42-.22-.82-.48-1.2-.79-4.59-3.66-9.89-7.96-14.53-11.76l-20.08-16.4c-11.45-9.4-25.14-10.47-23.87 8.95.28 4.29 1.78 9 3.76 13.51 2.98 6.74 6.31 12.19 9.22 16.07l59.75 90.36c.69 1.05 1.1 2.21 1.24 3.37 1.18 9.76 3.25 17.07 6.31 21.65 2.21 3.32 5.09 5.01 8.67 4.92 29.45-.59 63.83-1.19 93.04-.01 5.75-.08 11.02-1.78 15.79-5.06 9.84-6.78 17.52-21.8 23.34-32.4 8.39-15.31 15.28-30.83 16.19-48.51-.26-11.29-.75-22.61-.6-33.9.15-12.64.33-26.2-5.59-34.5-5.35-7.5-12.17-6.21-20.23-6.21-.02 0-.7 13.48-.79 14.84-.27 4.36-.54 7.32-.54 11.29 0 4.3-3.49 7.8-7.8 7.8-4.3 0-7.8-3.5-7.8-7.8 0-4.02.3-8.69.6-13.51.74-11.72 1.56-23.43-2.75-30.81-4.26-7.29-11.26-5.78-18.47-5.78-.58 0-1.13-.07-1.68-.18.09 5.98-.29 10.92-.67 16.89-.27 4.36-.55 8.57-.55 12.55 0 4.3-3.49 7.8-7.8 7.8-4.3 0-7.79-3.5-7.79-7.8 0-4.02.29-8.7.6-13.53.82-12.98 1.73-26.24-4.34-32.98-4.33-4.81-11.03-3.6-16.88-3.6-.71 0-1.39-.09-2.05-.27v28.95c0 4.3-3.49 7.8-7.8 7.8-4.3 0-7.8-3.5-7.8-7.8v-74.98c0-36.58-41.3-37.43-41.3.32v135.93zm-15.6-34.28v-102.9c0-58.45 72.5-57.47 72.5-.32v30.98c.66-.18 1.34-.27 2.05-.27 10.22 0 18.85-.87 27.39 6.59 4.41 3.84 6.99 9.04 8.43 14.97 1-.46 2.11-.72 3.29-.72 11.66 0 22.47-.71 30.65 10.07 2.97 3.91 4.73 8.71 5.71 13.99.39-.07.78-.09 1.19-.09 12.03 0 22.03-.63 31.28 9.57 10.52 11.6 10.28 31.32 10.08 48.17-.05 11.46.5 22.86.6 34.3-1.01 20.59-8.43 37.71-17.48 54.32-7.44 13.65-15.87 29.92-28.76 38.8-7.4 5.1-15.59 7.72-24.56 7.81l-92.91.04c-9.27.15-16.48-3.9-21.78-11.84-4.26-6.38-7.1-15.33-8.62-26.61l-58.47-88.46c-3.44-4.66-8-11.7-11.39-19.38-6.81-15.46-9.46-41.17 9.68-48.94 11.68-4.76 25.48.66 34.58 8.2l26.54 21.72zm220.48 35.12c16.53 2.43 36.64 5.71 51.93 9.65 0-101.24-.01-206.51-.01-307.73 10.37 0 22.75-2.07 22.75 13.37v307.85c0 9.23-9.1 15.58-17.68 12.66-18.27-5.23-37.22-9.58-56.46-12.67-.17-9.04-.54-14.08-.53-23.13zm-303.77 17.91c-39.37.38-79 7.33-115.88 17.89C9.1 399.25 0 392.9 0 383.67V75.82c0-15.44 12.37-13.37 22.74-13.37v307.73c28.93-7.45 64.46-12.53 96.23-13.97 3.63 9.12 8.92 14.24 14.59 22.23z"/></svg>